<?xml version="1.0" encoding="UTF-8"?>
<svg id="Layer_1" data-name="Layer 1" xmlns="http://www.w3.org/2000/svg" viewBox="0 0 475.04 440">
  <defs>
    <style>
      .cls-1 {
        fill: #0ea5e9;
      }
    </style>
  </defs>
  <path class="cls-1" d="m466.33,182.9l-68.52-137.04C383.67,17.57,355.24,0,323.61,0h-172.17c-31.42,0-60.15,17.75-74.2,45.86L8.71,182.9c-11.62,23.23-11.62,50.97,0,74.21l68.52,137.04c14.14,28.29,42.58,45.86,74.2,45.86h172.17c31.63,0,60.06-17.57,74.21-45.86l68.52-137.04c11.62-23.23,11.62-50.97,0-74.21Zm-312.66,205.16l16.15-42.45c2.39-6.28,8.4-10.43,15.12-10.43h103.6c6.72,0,12.74,4.16,15.13,10.44l16.11,42.49c2.17,5.73-2.06,11.86-8.19,11.86l-149.74-.05c-6.13,0-10.36-6.14-8.18-11.87Zm100.66-174.14c2.43,7.74,4.08,12.62,4.95,14.62l18.58,49c2.37,6.24-2.24,12.92-8.92,12.92h-64.31c-6.68,0-11.29-6.68-8.91-12.93l17.98-47.27c1.72-4.87,3.87-10.96,6.45-18.27s5.23-15.12,7.96-23.44l1.02-3.11c3.05-9.33,16.83-7.13,16.83,2.68h0s5.95,18.06,8.38,25.8Zm176.23,25.29l-60.35,120.69c-2.59,5.17-10.09,4.81-12.16-.59l-92.21-239.94c-2.4-6.25-8.41-10.37-15.1-10.37h-25.1c-6.68,0-12.67,4.11-15.09,10.34l-93.2,240.72c-2.09,5.39-9.57,5.74-12.16.57l-60.71-121.42c-6.02-12.03-6.02-26.4,0-38.43L113.01,63.75c7.28-14.56,22.15-23.75,38.43-23.75h172.17c16.38,0,31.1,9.1,38.43,23.75l68.52,137.04c6.02,12.03,6.02,26.4,0,38.43Z"/>
</svg>